<?xml version="1.0" encoding="utf-8" ?>
<!DOCTYPE svg PUBLIC "-//W3C//DTD SVG 1.1//EN" "http://www.w3.org/Graphics/SVG/1.1/DTD/svg11.dtd">
<svg xmlns="http://www.w3.org/2000/svg" version="1.1" width="299pt" height="299pt" viewBox="0 0 299 299">
  <defs/>
  <g id="PageItem467" transform="scale(1)">
    <path d="M 0 0 L 0 299 L 299 299 L 299 0 L 0 0 Z " stroke="none" fill="none"/>
  </g>
  <g id="PageItem12594" transform="scale(1)">
    <path d="M 74.6332329177856 198.936000442505 C 74.6332329177856 198.936000442505 74.6332329177856 146.822400665283 74.6332329177856 146.822400665283 C 74.6332329177856 145.71360168457 75.1876343154907 145.159200286865 76.2964332962036 145.159200286865 C 76.2964332962036 145.159200286865 130.258034553528 145.159200286865 130.258034553528 145.159200286865 C 131.366837348938 145.159200286865 131.921234931946 145.71360168457 131.921234931946 146.822400665283 C 131.921234931946 146.822400665283 131.921234931946 198.936000442505 131.921234931946 198.936000442505 C 131.921234931946 201.771525001526 132.90586933136 204.173925018311 134.87803730011 206.143200016022 C 136.847306098938 208.115362501144 139.249710884094 209.1 142.08523639679 209.1 C 144.917870368958 209.1 147.320275154114 208.115362501144 149.292435493469 206.143200016022 C 151.261711921692 204.173925018311 152.249237861633 201.771525001526 152.249237861633 198.936000442505 C 152.249237861633 198.936000442505 152.249237861633 84.3600021362305 152.249237861633 84.3600021362305 C 152.249237861633 81.527360534668 151.261711921692 79.1249633789063 149.292435493469 77.1527954101563 C 147.320275154114 75.1835266113281 144.917870368958 74.1960083007813 142.08523639679 74.1960083007813 C 139.249710884094 74.1960083007813 136.847306098938 75.1835266113281 134.87803730011 77.1527954101563 C 132.90586933136 79.1249633789063 131.921234931946 81.527360534668 131.921234931946 84.3600021362305 C 131.921234931946 84.3600021362305 131.921234931946 127.603196716309 131.921234931946 127.603196716309 C 131.921234931946 128.711999511719 131.366837348938 129.266397094727 130.258034553528 129.266397094727 C 130.258034553528 129.266397094727 76.2964332962036 129.266397094727 76.2964332962036 129.266397094727 C 75.1876343154907 129.266397094727 74.6332329177856 128.711999511719 74.6332329177856 127.603196716309 C 74.6332329177856 127.603196716309 74.6332329177856 84.3600021362305 74.6332329177856 84.3600021362305 C 74.6332329177856 81.527360534668 73.6457107925415 79.1249633789063 71.6764343643189 77.1527954101563 C 69.7042721176148 75.1835266113281 67.3018730545044 74.1960083007813 64.4692352676392 74.1960083007813 C 61.6337097549439 74.1960083007813 59.2313106918335 75.1835266113281 57.2620342636108 77.1527954101563 C 55.2898720169067 79.1249633789063 54.3052347564697 81.527360534668 54.3052347564697 84.3600021362305 C 54.3052347564697 84.3600021362305 54.3052347564697 198.936000442505 54.3052347564697 198.936000442505 C 54.3052347564697 201.771525001526 55.2898720169067 204.173925018311 57.2620342636108 206.143200016022 C 59.2313106918335 208.115362501144 61.6337097549439 209.1 64.4692352676392 209.1 C 67.3018730545044 209.1 69.7042721176148 208.115362501144 71.6764343643189 206.143200016022 C 73.6457107925415 204.173925018311 74.6332329177856 201.771525001526 74.6332329177856 198.936000442505 C 74.6332329177856 198.936000442505 74.6332329177856 198.936000442505 74.6332329177856 198.936000442505 Z M 238.363243904114 150.518399810791 C 238.363243904114 151.627198791504 237.86948474884 152.181600189209 236.884850349426 152.181600189209 C 236.884850349426 152.181600189209 195.489647712708 152.181600189209 195.489647712708 152.181600189209 C 194.25669178009 152.181600189209 193.762917366028 151.627198791504 194.01125415802 150.518399810791 C 195.735085334778 133.886399841309 203.620842781067 125.570397949219 217.665642585754 125.570397949219 C 230.722924079895 125.570397949219 237.62404712677 133.886399841309 238.363243904114 150.518399810791 C 238.363243904114 150.518399810791 238.363243904114 150.518399810791 238.363243904114 150.518399810791 Z M 242.983239021301 208.730400002003 C 245.32212146759 208.115362501144 247.233651008606 206.882400131226 248.712044563293 205.034400081635 C 250.19045337677 203.186400032043 250.929650154114 201.092962837219 250.929650154114 198.751200294495 C 250.929650154114 196.781924819946 250.126915779114 195.240000343323 248.527245368958 194.131200408936 C 246.924675788879 193.022399520874 245.200844612122 192.776961898804 243.352837409973 193.391999816895 C 237.069649543762 195.488324737549 230.662285652161 196.53360042572 224.13364490509 196.53360042572 C 205.405327644348 196.53360042572 195.304848518372 187.048162078857 193.826439704895 168.07439956665 C 193.826439704895 167.089761352539 194.317314949036 166.595998382568 195.304848518372 166.595998382568 C 195.304848518372 166.595998382568 246.494438972473 166.595998382568 246.494438972473 166.595998382568 C 249.451256599426 166.595998382568 252.038445320129 165.611363983154 254.25605091095 163.639199829102 C 256.47365650177 161.669923400879 257.518914070129 159.204000091553 257.397637214661 156.247201538086 C 256.534294929504 126.188325500488 243.289330329895 111.155999755859 217.665642585754 111.155999755859 C 203.620842781067 111.155999755859 192.870690193176 115.345765686035 185.418053474426 123.722398376465 C 177.962517585754 132.101922607422 174.23764881134 144.544160461426 174.23764881134 161.051999664307 C 174.23764881134 177.562724685669 178.395653572083 190.004962539673 186.711647834778 198.381599998474 C 195.027642097473 206.761124944687 206.883721199036 210.948000049591 222.285652961731 210.948000049591 C 229.308052864075 210.948000049591 236.206291999817 210.208799934387 242.983239021301 208.730400002003 C 242.983239021301 208.730400002003 242.983239021301 208.730400002003 242.983239021301 208.730400002003 Z " stroke="none" fill="#816CFF"/>
  </g>
  <g id="PageItem12595" transform="scale(1)">
    <path d="M 157.949057426453 39.7350001144409 C 159.422076072693 37.5659813690186 160.158856239319 35.3328003692627 160.158856239319 33.0359997558594 C 160.158856239319 30.7391991424561 159.445456352234 28.9469990539551 158.018656578064 27.6593994903565 C 156.591856803894 26.3717999267578 154.578894462585 25.7279991912842 151.980856742859 25.7279991912842 C 150.124494400024 25.7279991912842 148.257256832123 26.0297817993164 146.378056850433 26.6327996063233 C 145.84409412384 26.7953800964356 145.426493968964 27.1085800933838 145.125256624222 27.572399597168 C 144.823475446701 28.0367626953125 144.672856655121 28.5587620544434 144.672856655121 29.1383995819092 C 144.672856655121 29.5560002136231 144.846856679916 29.8692002105713 145.194856491089 30.0779995727539 C 145.54285654068 30.2867989349365 145.913694229126 30.3101811218262 146.308456745148 30.1476006317139 C 148.187656726837 29.3357815551758 149.904275741577 28.9296002197266 151.458856430054 28.9296002197266 C 154.613694038391 28.9296002197266 156.191656913757 30.4145817565918 156.191656913757 33.3839993286133 C 156.191656913757 35.2865814971924 155.443456497192 37.2413620758057 153.947056617737 39.2477993774414 C 152.450656738281 41.2547812271118 149.591075744629 43.9632000732422 145.368856754303 47.37359998703 C 144.556494083405 48.0467624473572 144.150856580734 48.8933810997009 144.150856580734 49.9140000152588 C 144.150856580734 50.3549812841416 144.301475372314 50.7263625073433 144.603256788254 51.0276000010967 C 144.904494132996 51.3293812531233 145.275875415802 51.48 145.716856803894 51.48 C 145.716856803894 51.48 158.592856254578 51.48 158.592856254578 51.48 C 159.033293571472 51.48 159.404675331116 51.3293812531233 159.706456031799 51.0276000010967 C 160.007695045471 50.7263625073433 160.158856239319 50.3549812841416 160.158856239319 49.9140000152588 C 160.158856239319 49.4735624599457 160.007695045471 49.1021811771393 159.706456031799 48.8003999996185 C 159.404675331116 48.4991624164581 159.033293571472 48.3480000305176 158.592856254578 48.3480000305176 C 158.592856254578 48.3480000305176 149.405656661987 48.3480000305176 149.405656661987 48.3480000305176 C 149.382275428772 48.3480000305176 149.370857086182 48.3365812110901 149.370857086182 48.3131999778748 C 149.370857086182 48.2903623390198 149.382275428772 48.2669811058045 149.405656661987 48.2435998725891 C 153.627875175476 44.7407622146607 156.475494232178 41.9045624542237 157.949057426453 39.7350001144409 Z " stroke="none" fill="#816CFF"/>
  </g>
  <g id="PageItem12596" transform="scale(1)">
    <path d="M 117.540678024292 265.579999947548 C 117.540678024292 265.579999947548 117.540678024292 258.811999702454 117.540678024292 258.811999702454 C 117.540678024292 258.667999649048 117.612678050995 258.596000099182 117.756678104401 258.596000099182 C 117.756678104401 258.596000099182 124.764678001404 258.596000099182 124.764678001404 258.596000099182 C 124.90867805481 258.596000099182 124.98067855835 258.667999649048 124.98067855835 258.811999702454 C 124.98067855835 258.811999702454 124.98067855835 265.579999947548 124.98067855835 265.579999947548 C 124.98067855835 265.94825001955 125.108552932739 266.260249996185 125.364678382874 266.515999996662 C 125.620428085327 266.772124999762 125.932428359985 266.9 126.300678253174 266.9 C 126.668553352356 266.9 126.980553627014 266.772124999762 127.236678123474 266.515999996662 C 127.492428779602 266.260249996185 127.620677947998 265.94825001955 127.620677947998 265.579999947548 C 127.620677947998 265.579999947548 127.620677947998 250.699999237061 127.620677947998 250.699999237061 C 127.620677947998 250.332125091553 127.492428779602 250.020124816895 127.236678123474 249.764000320435 C 126.980553627014 249.508249664307 126.668553352356 249.379999542236 126.300678253174 249.379999542236 C 125.932428359985 249.379999542236 125.620428085327 249.508249664307 125.364678382874 249.764000320435 C 125.108552932739 250.020124816895 124.98067855835 250.332125091553 124.98067855835 250.699999237061 C 124.98067855835 250.699999237061 124.98067855835 256.316000366211 124.98067855835 256.316000366211 C 124.98067855835 256.459999465942 124.90867805481 256.531999969482 124.764678001404 256.531999969482 C 124.764678001404 256.531999969482 117.756678104401 256.531999969482 117.756678104401 256.531999969482 C 117.612678050995 256.531999969482 117.540678024292 256.459999465942 117.540678024292 256.316000366211 C 117.540678024292 256.316000366211 117.540678024292 250.699999237061 117.540678024292 250.699999237061 C 117.540678024292 250.332125091553 117.412428379059 250.020124816895 117.156678199768 249.764000320435 C 116.900553226471 249.508249664307 116.588553190231 249.379999542236 116.220678329468 249.379999542236 C 115.852428197861 249.379999542236 115.540428161621 249.508249664307 115.284678220749 249.764000320435 C 115.028553247452 250.020124816895 114.900678277016 250.332125091553 114.900678277016 250.699999237061 C 114.900678277016 250.699999237061 114.900678277016 265.579999947548 114.900678277016 265.579999947548 C 114.900678277016 265.94825001955 115.028553247452 266.260249996185 115.284678220749 266.515999996662 C 115.540428161621 266.772124999762 115.852428197861 266.9 116.220678329468 266.9 C 116.588553190231 266.9 116.900553226471 266.772124999762 117.156678199768 266.515999996662 C 117.412428379059 266.260249996185 117.540678024292 265.94825001955 117.540678024292 265.579999947548 C 117.540678024292 265.579999947548 117.540678024292 265.579999947548 117.540678024292 265.579999947548 Z M 138.804317474365 259.291999721527 C 138.804317474365 259.435999774933 138.74019241333 259.507999801636 138.61231803894 259.507999801636 C 138.61231803894 259.507999801636 133.236318588257 259.507999801636 133.236318588257 259.507999801636 C 133.076192855835 259.507999801636 133.0120677948 259.435999774933 133.044317245483 259.291999721527 C 133.26819229126 257.132000350952 134.292318344116 256.051999473572 136.116317749023 256.051999473572 C 137.812068939209 256.051999473572 138.708316802979 257.132000350952 138.804317474365 259.291999721527 C 138.804317474365 259.291999721527 138.804317474365 259.291999721527 138.804317474365 259.291999721527 Z M 139.404317855835 266.851999999583 C 139.708068847656 266.772124999762 139.956317901611 266.612000012398 140.148319244385 266.372000002861 C 140.340316772461 266.131999993324 140.436317443848 265.860124969482 140.436317443848 265.55600001812 C 140.436317443848 265.300249958038 140.332067489624 265.099999928474 140.124317169189 264.955999994278 C 139.916193008423 264.811999940872 139.692317962646 264.780125045776 139.452318191528 264.860000038147 C 138.636318206787 265.132249975204 137.804191589355 265.268000030518 136.956317901611 265.268000030518 C 134.524066925049 265.268000030518 133.21231842041 264.036125087738 133.020317077637 261.571999931335 C 133.020317077637 261.444125080109 133.08406829834 261.380000019073 133.21231842041 261.380000019073 C 133.21231842041 261.380000019073 139.860317230225 261.380000019073 139.860317230225 261.380000019073 C 140.244318008423 261.380000019073 140.580318450928 261.252125167847 140.868316650391 260.995999717712 C 141.156318664551 260.740250015259 141.292068481445 260.419999980926 141.276317596436 260.036000156403 C 141.164192199707 256.132250213623 139.444068908691 254.179999732971 136.116317749023 254.179999732971 C 134.292318344116 254.179999732971 132.896192550659 254.724125289917 131.928318023682 255.811999702454 C 130.960067749023 256.900249862671 130.476318359375 258.516125106812 130.476318359375 260.659999752045 C 130.476318359375 262.804250144958 131.016317367554 264.420124912262 132.09631729126 265.508000040054 C 133.176317214966 266.596249991655 134.716068267822 267.140000009537 136.716318130493 267.140000009537 C 137.628318786621 267.140000009537 138.524192810059 267.043999993801 139.404317855835 266.851999999583 C 139.404317855835 266.851999999583 139.404317855835 266.851999999583 139.404317855835 266.851999999583 Z M 147.492118835449 265.579999947548 C 147.492118835449 265.579999947548 147.492118835449 250.219999694824 147.492118835449 250.219999694824 C 147.492118835449 249.852125549316 147.360118865967 249.540125274658 147.096118927002 249.284000778198 C 146.832118988037 249.02825012207 146.523868560791 248.9 146.172119140625 248.9 C 145.81999206543 248.9 145.512119293213 249.02825012207 145.248119354248 249.284000778198 C 144.984119415283 249.540125274658 144.852119445801 249.852125549316 144.852119445801 250.219999694824 C 144.852119445801 250.219999694824 144.852119445801 265.579999947548 144.852119445801 265.579999947548 C 144.852119445801 265.94825001955 144.984119415283 266.260249996185 145.248119354248 266.515999996662 C 145.512119293213 266.772124999762 145.81999206543 266.9 146.172119140625 266.9 C 146.523868560791 266.9 146.832118988037 266.772124999762 147.096118927002 266.515999996662 C 147.360118865967 266.260249996185 147.492118835449 265.94825001955 147.492118835449 265.579999947548 C 147.492118835449 265.579999947548 147.492118835449 265.579999947548 147.492118835449 265.579999947548 Z M 152.148139953613 250.219999694824 C 152.148139953613 250.588249588013 152.280139923096 250.900249862671 152.544139862061 251.155999565124 C 152.808139801025 251.412125015259 153.116012573242 251.539999389648 153.468139648438 251.539999389648 C 153.819889068604 251.539999389648 154.12813949585 251.412125015259 154.392139434814 251.155999565124 C 154.656139373779 250.900249862671 154.788139343262 250.588249588013 154.788139343262 250.219999694824 C 154.788139343262 249.852125549316 154.656139373779 249.540125274658 154.392139434814 249.284000778198 C 154.12813949585 249.02825012207 153.819889068604 248.9 153.468139648438 248.9 C 153.116012573242 248.9 152.808139801025 249.02825012207 152.544139862061 249.284000778198 C 152.280139923096 249.540125274658 152.148139953613 249.852125549316 152.148139953613 250.219999694824 C 152.148139953613 250.219999694824 152.148139953613 250.219999694824 152.148139953613 250.219999694824 Z M 154.788139343262 265.579999947548 C 154.788139343262 265.579999947548 154.788139343262 255.740000152588 154.788139343262 255.740000152588 C 154.788139343262 255.372125053406 154.656139373779 255.060124778748 154.392139434814 254.804000282288 C 154.12813949585 254.54824962616 153.819889068604 254.419999504089 153.468139648438 254.419999504089 C 153.116012573242 254.419999504089 152.808139801025 254.54824962616 152.544139862061 254.804000282288 C 152.280139923096 255.060124778748 152.148139953613 255.372125053406 152.148139953613 255.740000152588 C 152.148139953613 255.740000152588 152.148139953613 265.579999947548 152.148139953613 265.579999947548 C 152.148139953613 265.94825001955 152.280139923096 266.260249996185 152.544139862061 266.515999996662 C 152.808139801025 266.772124999762 153.116012573242 266.9 153.468139648438 266.9 C 153.819889068604 266.9 154.12813949585 266.772124999762 154.392139434814 266.515999996662 C 154.656139373779 266.260249996185 154.788139343262 265.94825001955 154.788139343262 265.579999947548 C 154.788139343262 265.579999947548 154.788139343262 265.579999947548 154.788139343262 265.579999947548 Z M 166.931896209717 265.363999986649 C 166.947647094727 265.348249936104 166.963771820068 265.339999938011 166.97989654541 265.339999938011 C 166.99564743042 265.339999938011 167.003894805908 265.348249936104 167.003894805908 265.363999986649 C 167.003894805908 265.363999986649 167.003894805908 265.724000000954 167.003894805908 265.724000000954 C 167.019645690918 266.044249975681 167.147895812988 266.320249998569 167.387897491455 266.552000010014 C 167.627895355225 266.784125001729 167.907646179199 266.9 168.227897644043 266.9 C 168.547771453857 266.9 168.82377243042 266.784125001729 169.055896759033 266.552000010014 C 169.287647247314 266.320249998569 169.403896331787 266.044249975681 169.403896331787 265.724000000954 C 169.403896331787 265.724000000954 169.403896331787 255.667999649048 169.403896331787 255.667999649048 C 169.403896331787 255.316250228882 169.283897399902 255.019999885559 169.043895721436 254.780000114441 C 168.803894042969 254.540000343323 168.50764465332 254.419999504089 168.155895233154 254.419999504089 C 167.803771972656 254.419999504089 167.503768920898 254.540000343323 167.255897521973 254.780000114441 C 167.00764465332 255.019999885559 166.883895874023 255.316250228882 166.883895874023 255.667999649048 C 166.883895874023 255.667999649048 166.883895874023 262.099999809265 166.883895874023 262.099999809265 C 166.883895874023 262.852250003815 166.551647186279 263.560249948502 165.887897491455 264.223999881744 C 165.223770141602 264.888125085831 164.515769958496 265.219999933243 163.763896942139 265.219999933243 C 162.915645599365 265.219999933243 162.315647125244 264.972124958038 161.963897705078 264.475999975204 C 161.611770629883 263.980250024796 161.435897827148 263.068250083923 161.435897827148 261.740000152588 C 161.435897827148 261.740000152588 161.435897827148 255.643999481201 161.435897827148 255.643999481201 C 161.435897827148 255.307999992371 161.311771392822 255.019999885559 161.063896179199 254.780000114441 C 160.815647125244 254.540000343323 160.523895263672 254.419999504089 160.187896728516 254.419999504089 C 159.851894378662 254.419999504089 159.563896179199 254.540000343323 159.323894500732 254.780000114441 C 159.083896636963 255.019999885559 158.963897705078 255.307999992371 158.963897705078 255.643999481201 C 158.963897705078 255.643999481201 158.963897705078 262.099999809265 158.963897705078 262.099999809265 C 158.963897705078 263.908249998093 159.291645050049 265.200125002861 159.947895050049 265.975999975204 C 160.603771209717 266.752249994874 161.635772705078 267.140000009537 163.043895721436 267.140000009537 C 164.499645233154 267.140000009537 165.79564666748 266.548249983788 166.931896209717 265.363999986649 C 166.931896209717 265.363999986649 166.931896209717 265.363999986649 166.931896209717 265.363999986649 Z M 175.379653930664 265.651999974251 C 175.379653930664 265.651999974251 175.379653930664 258.259999656677 175.379653930664 258.259999656677 C 175.379653930664 257.780000114441 175.619651794434 257.29999961853 176.09965133667 256.820000076294 C 176.579650878906 256.339999580383 177.051406860352 256.099999809265 177.515655517578 256.099999809265 C 178.251403808594 256.099999809265 178.755401611328 256.336249732971 179.027648925781 256.807999992371 C 179.299530029297 257.280125045776 179.435653686523 258.244249725342 179.435653686523 259.699999713898 C 179.435653686523 259.699999713898 179.435653686523 265.651999974251 179.435653686523 265.651999974251 C 179.435653686523 265.987999999523 179.55940246582 266.280124986172 179.807655334473 266.527999991178 C 180.055526733398 266.776249998808 180.34765625 266.9 180.683654785156 266.9 C 181.019653320313 266.9 181.307655334473 266.776249998808 181.547653198242 266.527999991178 C 181.787651062012 266.280124986172 181.907653808594 265.987999999523 181.907653808594 265.651999974251 C 181.907653808594 265.651999974251 181.907653808594 258.259999656677 181.907653808594 258.259999656677 C 181.907653808594 257.780000114441 182.151405334473 257.29999961853 182.639656066895 256.820000076294 C 183.12752532959 256.339999580383 183.603401184082 256.099999809265 184.067649841309 256.099999809265 C 184.803405761719 256.099999809265 185.307403564453 256.336249732971 185.579650878906 256.807999992371 C 185.851531982422 257.280125045776 185.987655639648 258.244249725342 185.987655639648 259.699999713898 C 185.987655639648 259.699999713898 185.987655639648 265.651999974251 185.987655639648 265.651999974251 C 185.987655639648 265.987999999523 186.107650756836 266.280124986172 186.34765625 266.527999991178 C 186.58765411377 266.776249998808 186.87565612793 266.9 187.211654663086 266.9 C 187.547653198242 266.9 187.839401245117 266.776249998808 188.08765411377 266.527999991178 C 188.335525512695 266.280124986172 188.459655761719 265.987999999523 188.459655761719 265.651999974251 C 188.459655761719 265.651999974251 188.459655761719 258.979999923706 188.459655761719 258.979999923706 C 188.459655761719 257.203999900818 188.175399780273 255.960125350952 187.607650756836 255.247999572754 C 187.039527893066 254.536249542236 186.099403381348 254.179999732971 184.787651062012 254.179999732971 C 183.491653442383 254.179999732971 182.371528625488 254.812249565124 181.42765045166 256.075999641418 C 181.411529541016 256.092125320435 181.395401000977 256.099999809265 181.379653930664 256.099999809265 C 181.34740447998 256.099999809265 181.331649780273 256.092125320435 181.331649780273 256.075999641418 C 181.011405944824 255.388249778748 180.635650634766 254.9 180.203651428223 254.611999893188 C 179.77165222168 254.323999786377 179.20352935791 254.179999732971 178.499649047852 254.179999732971 C 177.363403320313 254.179999732971 176.323528289795 254.731999778748 175.379653930664 255.8359998703 C 175.379653930664 255.852124595642 175.363529205322 255.860000038147 175.331653594971 255.860000038147 C 175.315528869629 255.860000038147 175.307651519775 255.852124595642 175.307651519775 255.8359998703 C 175.307651519775 255.8359998703 175.307651519775 255.620000267029 175.307651519775 255.620000267029 C 175.291526794434 255.283999824524 175.163654327393 255.000125312805 174.923652648926 254.768000030518 C 174.683654785156 254.536249542236 174.395652770996 254.419999504089 174.05965423584 254.419999504089 C 173.723651885986 254.419999504089 173.439403533936 254.536249542236 173.207653045654 254.768000030518 C 172.975528717041 255.000125312805 172.8596534729 255.283999824524 172.8596534729 255.620000267029 C 172.8596534729 255.620000267029 172.8596534729 265.651999974251 172.8596534729 265.651999974251 C 172.8596534729 266.004124963284 172.979652404785 266.299999976158 173.219654083252 266.539999985695 C 173.459651947021 266.779999995232 173.755527496338 266.9 174.107654571533 266.9 C 174.459403991699 266.9 174.75940322876 266.779999995232 175.007652282715 266.539999985695 C 175.255527496338 266.299999976158 175.379653930664 266.004124963284 175.379653930664 265.651999974251 C 175.379653930664 265.651999974251 175.379653930664 265.651999974251 175.379653930664 265.651999974251 Z " stroke="none" fill="#816CFF"/>
  </g>
</svg>